<svg xmlns="http://www.w3.org/2000/svg" width="100" height="100" viewBox="0 20 100 80">
 <path fill="currentColor" d="m66.867 31.625c-0.027344 0.039062 0.027343 0.078125 0.054687 0.039062 0.42969-0.39844 0.66406-0.96484 0.63672-1.5508-0.027344-0.58594-0.3125-1.1289-0.78125-1.4844-0.027344-0.03125-0.046875-0.074218-0.042969-0.12109 0-0.042968 0.019531-0.085937 0.050781-0.11328 1.1484-1.0977 2.8242-1.4219 4.3008-0.83984 1.457 0.82812 2.2422 2.4805 1.9688 4.1328-0.125 1.2383-0.85156 2.3398-1.9414 2.9414-0.058593 0.035156-0.13281 0.007813-0.15234-0.058594-0.32813-1.1445-1.4609-1.8672-2.6367-1.6836-0.19922 0.011719-0.39062 0.082031-0.55078 0.19922-0.011719 0.015624-0.011719 0.035156-0.007813 0.050781 0.007813 0.015625 0.023437 0.027343 0.042969 0.027343 1.0703-0.078124 2.0156 0.69922 2.1523 1.7617 0.20703 1.9141-1.6602 3.2461-3.3867 3.2578h-0.003907c-0.039062 0-0.070312-0.03125-0.074218-0.074219-0.007813-0.17188-0.015625-0.32031-0.015625-0.4375 0.003906-0.94141-0.38281-1.8438-1.0703-2.4883-0.59766-0.59766-1.4531-0.85156-2.2773-0.67969-0.16797 0.03125-0.32422 0.10156-0.45703 0.20703-0.023437 0.019531-0.007812 0.054687 0.019531 0.054687 0.96094-0.10938 1.8906 0.39453 2.3242 1.2578 0.70703 1.6016 0.066407 3.4805-1.4688 4.3203-0.83984 0.41016-1.793 0.53516-2.7109 0.35547-1-0.30078-2.0391-0.44141-3.0781-0.41016-2.5156 0.27344-3.6445 2.2422-3.6328 4.6172 0 0.027344 0.027344 0.046875 0.054688 0.035156l2.2773-1.0078c0.019531-0.007813 0.046874 0 0.058593 0.019531 0.91016 1.4414 2 3.082 3.2656 4.9219 2.0156 2.9258 4.2266 5.7148 6.6133 8.3438 1.2891 1.4375 2.6641 2.793 4.1172 4.0586 0.91016 0.78125 2.1875 1.6797 3.1133 2.4414 1.3242 1.1992 2.3906 2.6523 3.1367 4.2773 0.54297 1.1875 1.4922 2.1406 2.6758 2.6914 1.0547 0.32422 2.1289 0.56641 3.2227 0.71484 0.89063 0.16016 1.7188 0.57812 2.375 1.1992 0.99219 0.93359 1.4922 2.2734 2.4375 3.3008 0.027344 0.027344 0.007813 0.070312-0.03125 0.074218h-75.359c-0.03125 0-0.0625-0.023437-0.078126-0.050781-0.015624-0.03125-0.007812-0.070312 0.011719-0.09375 0.24219-0.28906 0.51562-0.55078 0.82031-0.77734 1.5273-1.0938 3.5-2.0117 4.8242-2.8516 0.89063-0.57422 1.6328-1.3516 2.1602-2.2734 0.93359-1.5664 1.7773-2.8945 2.5273-3.9883 0.24219-0.37891 0.53125-0.72656 0.85547-1.0352 0.30859-0.23438 0.64844-0.43359 1.0078-0.58594 2.1211-0.91406 4.1758-1.9766 6.1523-3.1758 1.0234-0.63281 1.9414-1.418 2.7305-2.3281 0.36328-0.49219 0.6875-1.0117 0.96484-1.5547 0.27734-0.46875 0.60938-0.90625 0.98828-1.3008 0.51562-0.5625 1.2539-1.3125 2.2148-2.25 2.3672-2.2422 4.3906-4.8242 6.0078-7.6602 0.50781-0.93359 0.89844-1.8711 1.3203-2.0352 0.14844-0.058594 0.31641-0.011719 0.42188 0.10938 0.10547 0.125 0.27344 0.35156 0.51172 0.67969h-0.003906c0.035156 0.046874 0.089843 0.078124 0.14844 0.078124 0.69922 0.023438 1.3984-0.089843 2.0547-0.33594 0.019532-0.007813 0.03125-0.023437 0.039063-0.039063 0.007813-0.019531 0.007813-0.042968 0-0.058593-0.078125-0.16406-0.18359-0.31641-0.30469-0.45312-0.66797-0.75781-1.3125-1.4492-1.9336-2.0703-0.15234-0.15234-0.33594-0.35156-0.55469-0.60156-0.24609-0.25781-0.47266-0.53125-0.67578-0.82422-0.69922-1.0938-0.82812-2.4609-0.34375-3.6641 0.93359-2.1367 3.1211-3.4492 5.4453-3.2617 1.0469 0.003906 2.0508 0.42188 2.7891 1.168 0.34375 0.38281 0.58594 0.64844 0.72656 0.80078v-0.003907c0.03125 0.035157 0.082032-0.003906 0.0625-0.042968-1.3633-2.6445 1.1836-5.082 3.8828-4.3594 0.25781 0.070312 0.58594 0.25391 0.84375 0.33984h-0.003906c0.019531 0.007813 0.039062 0 0.050781-0.015624 0.011719-0.015626 0.011719-0.039063 0-0.058594-0.66797-0.84766-1.7383-1.2695-2.8047-1.1094-1.6094 0.085937-2.9844 1.1836-3.4258 2.7305-0.007812 0.023437-0.023437 0.039062-0.042969 0.046874-0.019531 0.007813-0.042968 0.007813-0.066406 0-0.39844-0.21094-0.82812-0.34766-1.2734-0.41016-0.050781-0.003906-0.085938-0.042968-0.082031-0.089844-0.027344-2.6367 1.3242-5.0938 3.5625-6.4883 2.1484-1.2734 4.7773-1.4219 7.0547-0.39844 1.2148 0.53906 2.2734 1.3711 3.0898 2.4219 0.035156 0.042969 0.011719 0.10547-0.039063 0.12109-0.83984 0.19531-1.4805 0.875-1.6289 1.7227-0.10156 0.65234 0.10547 1.3164 0.56641 1.7891 0.019532 0.019531 0.050782 0.003907 0.046875-0.023437-0.49609-2.0703 1.2266-3.0938 3.0234-2.5352 0.5 0.13281 0.91797 0.48437 1.1367 0.95703 0.21875 0.47266 0.21875 1.0156 0 1.4883zm-16.023 14.445c-0.58984-0.98828-0.99609-2.0781-1.1992-3.2109-0.46484-2.5391 0.49219-4.6055 2.1758-6.4922v-0.003907c0.023438-0.027343 0.042969-0.0625 0.058594-0.097656s-0.019531-0.066406-0.050781-0.046875c-1.6992 0.84766-3.3711 1.9961-3.7656 4.0117-0.23828 1.1016-0.074219 2.25 0.46484 3.2422 0.5625 1.0273 1.3281 1.9336 2.2461 2.6641 0.039062 0.027343 0.089843-0.015625 0.070312-0.0625zm9.7852-7.9414v0.003906c-0.73047-1.1953-2.0352-1.9219-3.4336-1.9102-1.8086 0.039063-3.4961 0.91797-4.5664 2.375-1.0664 1.4609-1.3945 3.3359-0.88281 5.0703 0.21875 0.66016 0.50391 1.2969 0.85156 1.8984 0.035156 0.054688 0.11719 0.023438 0.10938-0.039062-0.42578-1.6094-0.27734-3.3164 0.41797-4.8281 1.1133-2.1602 3.4727-3.3789 5.8828-3.043 0.54297 0.097656 1.0664 0.28125 1.5508 0.54297 0.023437 0.011719 0.046875 0.007812 0.0625-0.007813s0.019531-0.042968 0.007812-0.058594zm14.133 33.578c-0.52344-0.21484-1.082-0.40625-1.7305-0.6875v0.003907c-2.7031-1.168-5.3359-2.4844-7.8867-3.9492-0.99609-0.56641-1.957-1.1797-2.8867-1.8438-0.41797-0.29688-0.81641-0.625-1.1875-0.97656-0.035156-0.035156-0.039062-0.089844-0.007812-0.125 0.027344-0.035156 0.078125-0.042968 0.11719-0.019531 1.6094 1.0938 3.2969 2.0625 5.0508 2.9023 0.035156 0.015625 0.074219-0.011719 0.066406-0.050781-0.27344-1.8359-0.73438-3.6406-1.3789-5.3828-0.23828-0.58984-0.55078-1.1445-0.93359-1.6562-0.03125-0.042969 0.007813-0.10156 0.058594-0.089844 0.21875 0.13672 0.41797 0.29297 0.60156 0.46875 1.6523 1.4102 3.4062 2.8984 5.2656 4.4609h-0.003906c1.7227 1.3516 3.1484 3.043 4.1914 4.9727 0.003906 0.011719 0.019532 0.015625 0.03125 0.011719 0.011719-0.003906 0.015625-0.019532 0.011719-0.027344-0.68359-1.8203-1.5312-3.5703-2.5312-5.2344-0.39062-0.625-0.83984-1.2148-1.3359-1.7617-0.50781-0.52344-1.0586-1-1.6484-1.4336-1.125-0.875-2.1875-1.832-3.1758-2.8594-3.1523-3.3086-5.8398-7.0352-7.9805-11.074-0.33203-0.61719-0.72656-1.3516-1.1758-2.2109v-0.003906c-0.019531-0.03125-0.058594-0.046875-0.09375-0.027344-1.3789 0.74219-2.8125 1.375-4.2891 1.9023-0.19531 0.070313-0.55078 0.17188-1.0664 0.30078v-0.003906c-0.050781 0.015625-0.09375 0.058594-0.097656 0.11328l-0.10938 1.0859h-0.003907c-0.011718 0.10547-0.14453 0.13281-0.19922 0.046875l-1.4336-2.4805h0.003906c-0.03125-0.054687-0.10156-0.066406-0.14844-0.03125l-0.94922 0.69141c-0.089844 0.066407-0.21094 0.046875-0.27734-0.042969l-0.34375-0.47266c-0.089844-0.11719-0.23438-0.17578-0.38281-0.15234-0.45312 0.089844-0.90625 0.20703-1.3477 0.35156-0.16016 0.054687-0.33594 0.054687-0.5 0-0.015626-0.007813-0.03125-0.019531-0.039063-0.035156l-0.26953-0.46875c-0.007813-0.015625-0.023438-0.023438-0.042969-0.023438-0.015625 0-0.03125 0.011719-0.039063 0.027344-1.2109 2.3516-2.7852 4.5039-4.6641 6.3672-1.5625 1.418-2.9844 2.9844-4.2383 4.6836-0.77344 1.1875-1.3398 2.0391-1.6914 2.5469-1.7383 2.5117-3.8555 4.7461-6.2734 6.6133-0.011719 0.007813-0.015625 0.027344-0.007813 0.039063 0.007813 0.011719 0.023438 0.019531 0.039063 0.011719 1.8047-0.76953 3.5117-1.7539 5.0781-2.9297 3.7773-3.0078 7.0469-6.5938 9.6953-10.629 0.9375-1.3555 1.4102-2.043 1.4102-2.0664 0-0.003906 0.003906-0.007813 0.007812-0.007813l0.074219 0.007813c0.007812 0.003906 0.015625 0.007812 0.019531 0.015625 0.003907 0.007812 0.003907 0.015625 0 0.023437-1.5938 3.543-3.582 6.8945-5.9297 9.9883-0.64062 0.84375-1.8984 2.2266-2.5273 3.2422-0.47656 0.79297-0.86719 1.6367-1.1641 2.5156-0.007813 0.023438 0.015624 0.046875 0.039062 0.03125l2.4141-1.5117v0.003907c0.039063-0.023438 0.089844 0.007812 0.085938 0.050781-0.10547 0.81641 0.09375 1.6406 0.55469 2.3164 0.042968 0.066406 0.14062 0.042969 0.15234-0.03125 0.10156-0.5625 0.27344-1.1055 0.51953-1.6211 0.042969-0.089843 0.10156-0.17188 0.17969-0.23828 2.0195-1.8281 3.7656-3.9375 5.1836-6.2617 0.035156-0.0625 0.13281-0.042969 0.14453 0.03125 0.26172 1.9844 0.73438 3.9375 1.4102 5.8242 0.17969 0.52734 0.43359 1.0273 0.75391 1.4805 0.097656 0.14062 0.28906 0.17969 0.4375 0.09375l0.39844-0.23047c0.054687-0.03125 0.125-0.027344 0.17578 0.011719l3.8984 2.8125h0.003906c0.042969 0.03125 0.10938 0.015625 0.13281-0.035157l1.2734-2.6133h-0.003906c0.027344-0.050781 0.089844-0.074219 0.14062-0.050781l6.8008 3c0.027344 0.011719 0.054688 0 0.066406-0.027344l1.543-3.9922c0.011719-0.042969 0.066406-0.054688 0.097656-0.023438 2.207 1.9023 4.7148 3.4258 7.4219 4.5078 2.0781 0.82812 4.2305 1.4688 6.4258 1.9062 0.019531 0.007812 0.042968 0 0.050781-0.019532 0.003906-0.023437-0.007813-0.042968-0.03125-0.046874z"/>
</svg>
